<?xml version="1.0" encoding="UTF-8" standalone="no"?>
<!-- Created with Inkscape (http://www.inkscape.org/) -->

<svg
   xmlns:dc="http://purl.org/dc/elements/1.1/"
   xmlns:cc="http://creativecommons.org/ns#"
   xmlns:rdf="http://www.w3.org/1999/02/22-rdf-syntax-ns#"
   xmlns:svg="http://www.w3.org/2000/svg"
   xmlns="http://www.w3.org/2000/svg"
   xmlns:xlink="http://www.w3.org/1999/xlink"
   xmlns:sodipodi="http://sodipodi.sourceforge.net/DTD/sodipodi-0.dtd"
   xmlns:inkscape="http://www.inkscape.org/namespaces/inkscape"
   version="1.1"
   id="svg2268"
   width="829.33331"
   height="933.33331"
   viewBox="0 0 829.33331 933.33331"
   sodipodi:docname="fototapety-zarovka-s-maturitni-klobouk.svg"
   inkscape:version="0.92.3 (2405546, 2018-03-11)">
  <metadata
     id="metadata2274">
    <rdf:RDF>
      <cc:Work
         rdf:about="">
        <dc:format>image/svg+xml</dc:format>
        <dc:type
           rdf:resource="http://purl.org/dc/dcmitype/StillImage" />
        <dc:title></dc:title>
      </cc:Work>
    </rdf:RDF>
  </metadata>
  <defs
     id="defs2272">
    <linearGradient
       id="linearGradient2381"
       inkscape:collect="always">
      <stop
         id="stop2373"
         offset="0"
         style="stop-color:#0f0f0f;stop-opacity:1" />
      <stop
         style="stop-color:#444444;stop-opacity:1"
         offset="0.39186499"
         id="stop2375" />
      <stop
         style="stop-color:#818181;stop-opacity:1"
         offset="0.64980108"
         id="stop2377" />
      <stop
         id="stop2379"
         offset="1"
         style="stop-color:#fdfdfd;stop-opacity:1" />
    </linearGradient>
    <linearGradient
       inkscape:collect="always"
       id="linearGradient2367">
      <stop
         style="stop-color:#010101;stop-opacity:1"
         offset="0"
         id="stop2363" />
      <stop
         id="stop2371"
         offset="0.55174464"
         style="stop-color:#b6b6b6;stop-opacity:1" />
      <stop
         style="stop-color:#d1d1d1;stop-opacity:1"
         offset="1"
         id="stop2365" />
    </linearGradient>
    <linearGradient
       inkscape:collect="always"
       id="linearGradient2341">
      <stop
         style="stop-color:#0f0f0f;stop-opacity:1"
         offset="0"
         id="stop2337" />
      <stop
         id="stop2347"
         offset="0.39186499"
         style="stop-color:#080808;stop-opacity:0.60392159" />
      <stop
         id="stop2345"
         offset="0.64980108"
         style="stop-color:#818181;stop-opacity:0.34901962" />
      <stop
         style="stop-color:#fdfdfd;stop-opacity:0"
         offset="1"
         id="stop2339" />
    </linearGradient>
    <linearGradient
       inkscape:collect="always"
       xlink:href="#linearGradient2381"
       id="linearGradient2343"
       x1="-1.2750455"
       y1="140.89253"
       x2="708.28778"
       y2="145.35519"
       gradientUnits="userSpaceOnUse"
       gradientTransform="translate(929.50817,521.49361)" />
    <linearGradient
       inkscape:collect="always"
       xlink:href="#linearGradient2341"
       id="linearGradient2359"
       x1="334.42072"
       y1="165.43716"
       x2="381.5174"
       y2="165.43716"
       gradientUnits="userSpaceOnUse"
       gradientTransform="translate(930.14569,521.49361)" />
    <linearGradient
       inkscape:collect="always"
       xlink:href="#linearGradient2367"
       id="linearGradient2369"
       x1="1083.6269"
       y1="809.05737"
       x2="1444.5188"
       y2="746.22424"
       gradientUnits="userSpaceOnUse" />
  </defs>
  <sodipodi:namedview
     pagecolor="#ffffff"
     bordercolor="#666666"
     borderopacity="1"
     objecttolerance="10"
     gridtolerance="10"
     guidetolerance="10"
     inkscape:pageopacity="0"
     inkscape:pageshadow="2"
     inkscape:window-width="1280"
     inkscape:window-height="961"
     id="namedview2270"
     showgrid="false"
     inkscape:zoom="0.78428573"
     inkscape:cx="397.50996"
     inkscape:cy="506.16183"
     inkscape:window-x="1272"
     inkscape:window-y="-8"
     inkscape:window-maximized="1"
     inkscape:current-layer="svg2268" />
  <g
     id="g2417"
     transform="matrix(0.81306948,0,0,0.72672863,-666.91814,-268.16653)">
    <path
       sodipodi:nodetypes="ccccccc"
       inkscape:connector-curvature="0"
       id="path2291"
       d="m 1152.2363,841.37079 c -15.2638,-17.56678 -31.3141,-25.43772 -51.6549,-24.38832 -14.6526,15.8957 -8.4883,30.39366 0.2641,49.63294 -11.5282,54.78408 -49.5864,115.98023 9.0159,148.76289 27.0991,12.2262 58.7778,41.2817 118.104,-1.6843 -3.0968,1.9361 73.6782,-37.315 -10.9784,-145.95824 -30.8132,-24.05999 -43.003,-20.43592 -64.7507,-26.36497 z"
       style="fill:none;stroke:#000000;stroke-width:12.34015751;stroke-linecap:butt;stroke-linejoin:miter;stroke-miterlimit:4;stroke-dasharray:none;stroke-opacity:1" />
    <path
       sodipodi:nodetypes="cccccccccc"
       inkscape:connector-curvature="0"
       id="path2293"
       d="m 1375.8314,846.78035 c -40.0872,6.6909 -67.8363,26.86862 -89.303,47.10162 -37.6519,60.00462 -1.0079,100.13759 17.1755,119.69313 54.0269,34.696 83.1837,18.1508 122.3526,-6.0924 38.0842,-38.32332 22.1654,-98.46676 -6.047,-133.65455 12.3174,-16.62449 23.3659,-33.64552 9.0159,-58.60356 -38.0931,1.61031 -40.2125,18.95914 -53.194,31.55576 l -27.9494,-1.80318 c -32.1783,-24.2053 -100.7331,-29.71398 -162.4867,1.95787 -40.22,-2.99029 -68.0272,19.52703 -90.1312,37.94654"
       style="fill:none;stroke:#000000;stroke-width:12.34015751;stroke-linecap:butt;stroke-linejoin:miter;stroke-miterlimit:4;stroke-dasharray:none;stroke-opacity:1" />
    <path
       sodipodi:nodetypes="ccccccccccccc"
       inkscape:connector-curvature="0"
       id="path2297"
       d="m 1109.8614,1015.3783 c -29.5426,63.3915 -62.5951,153.6673 15.3663,220.7783 40.6855,56.45 93.9946,75.029 149.8178,86.0656 103.8022,-0.7528 181.3929,-110.418 191.2568,-179.1439 7.3935,-40.5744 -8.8313,-81.0138 -47.2585,-131.7705 -46.693,35.586 -90.7622,24.634 -125.5101,-7.2095 -19.6619,-10.37019 -35.5853,-10.55139 -53.552,1.1157 -11.8141,9.4857 -6.1147,36.205 20.4008,44.786 17.3744,-2.6064 34.2781,-18.0278 43.3214,-36.4249 15.8407,21.7739 49.5365,24.4175 81.633,28.7746 80.7633,171.1332 -55.7194,271.1531 -110.2914,279.8725 -65.1585,-24.821 -130.1266,-49.9155 -142.1676,-151.0929 3.9003,-42.9265 9.1393,-91.9096 27.7323,-134.8361"
       style="fill:none;stroke:#000000;stroke-width:12.34015751;stroke-linecap:butt;stroke-linejoin:miter;stroke-miterlimit:4;stroke-dasharray:none;stroke-opacity:1" />
    <path
       sodipodi:nodetypes="ccccc"
       inkscape:connector-curvature="0"
       id="path2299"
       d="m 1143.0783,1089.5264 c 13.5764,48.1695 43.6164,43.0202 70.765,1.275 17.4409,20.6868 29.383,69.3624 64.3898,0.6376 14.4991,21.9669 24.1814,66.0102 58.0146,-0.6375 21.8883,44.2915 43.7766,68.1207 65.6648,1.2749"
       style="fill:none;stroke:#000000;stroke-width:12.34015751;stroke-linecap:butt;stroke-linejoin:miter;stroke-miterlimit:4;stroke-dasharray:none;stroke-opacity:1" />
    <path
       sodipodi:nodetypes="cccccc"
       inkscape:connector-curvature="0"
       id="path2301"
       d="m 1139.8907,1180.0546 c 9.4549,1.4811 19.7848,-5.0137 24.2259,-23.5883 29.3944,72.7286 56.2245,51.8621 82.2404,1.275 37.9854,79.719 52.8328,40.4427 67.5774,0.6376 14.3824,40.7291 31.5262,67.1496 64.3898,12.1128 7.2777,1.784 15.9165,49.8436 21.6757,10e-5"
       style="fill:none;stroke:#000000;stroke-width:12.34015751;stroke-linecap:butt;stroke-linejoin:miter;stroke-miterlimit:4;stroke-dasharray:none;stroke-opacity:1" />
    <path
       sodipodi:nodetypes="ccccc"
       inkscape:connector-curvature="0"
       id="path2303"
       d="m 1178.142,1266.439 36.9763,-37.6139 c 32.9701,74.6335 45.9387,21.8889 63.7523,0 17.5279,44.1773 36.27,64.6143 58.0146,0 l 22.6321,37.9326"
       style="fill:none;stroke:#000000;stroke-width:12.34015751;stroke-linecap:butt;stroke-linejoin:miter;stroke-miterlimit:4;stroke-dasharray:none;stroke-opacity:1" />
    <path
       sodipodi:nodetypes="ccc"
       inkscape:connector-curvature="0"
       id="path2309"
       d="m 1366.8155,904.48233 c 45.9503,-0.21351 69.5521,63.85925 -1.8032,81.1434 -88.6721,-15.48022 -23.3486,-87.72151 1.8032,-81.1434 z"
       style="fill:none;stroke:#000000;stroke-width:12.34015751;stroke-linecap:butt;stroke-linejoin:miter;stroke-miterlimit:4;stroke-dasharray:none;stroke-opacity:1" />
    <path
       style="fill:none;stroke:#000000;stroke-width:12.34015751;stroke-linecap:butt;stroke-linejoin:miter;stroke-miterlimit:4;stroke-dasharray:none;stroke-opacity:1"
       d="m 1166.6334,899.38215 c 45.9503,-0.21351 69.5521,63.85925 -1.8032,81.1434 -88.6721,-15.48022 -23.3486,-87.72151 1.8032,-81.1434 z"
       id="path2311"
       inkscape:connector-curvature="0"
       sodipodi:nodetypes="ccc" />
    <path
       sodipodi:nodetypes="ccccc"
       inkscape:connector-curvature="0"
       id="path2321"
       d="M 928.23313,662.38614 1311.3843,787.3406 c 129.6133,-32.59687 220.5648,-79.25258 326.4117,-120.4918 -131.5289,-8.7394 -255.6371,-21.52643 -360.8379,-44.6266 -107.9743,27.85582 -232.1708,27.32285 -348.72497,40.16394 z"
       style="fill:none;stroke:#000000;stroke-width:1px;stroke-linecap:butt;stroke-linejoin:miter;stroke-opacity:1" />
    <path
       sodipodi:nodetypes="ccccc"
       inkscape:connector-curvature="0"
       id="path2323"
       d="m 1084.1268,713.61004 2.8495,127.28247 c 18.5132,20.09433 57.2626,40.63835 182.969,63.11475 72.8471,-14.17522 99.6788,11.48236 158.5863,-28.24872 16.3476,-20.51936 23.2833,-83.90511 15.9872,-129.53428"
       style="fill:url(#linearGradient2369);fill-opacity:1;stroke:#000000;stroke-width:1px;stroke-linecap:butt;stroke-linejoin:miter;stroke-opacity:1" />
    <ellipse
       ry="12.431694"
       rx="18.169399"
       cy="686.93079"
       cx="1288.1147"
       id="path2325"
       style="opacity:1;fill:#4d4d4d;fill-opacity:1;stroke:url(#linearGradient2359);stroke-width:10.75790024;stroke-miterlimit:4;stroke-dasharray:none;stroke-opacity:0" />
    <path
       sodipodi:nodetypes="cssc"
       inkscape:connector-curvature="0"
       id="path2327"
       d="m 1084.1268,713.61004 c 71.4726,18.61758 133.9445,47.30725 215.8786,70.03188 10.5926,2.93789 5.1815,4.20846 19.2807,1.19835 37.2575,-7.95432 84.1674,-24.00117 125.2327,-38.61601"
       style="fill:none;stroke:#000000;stroke-width:1px;stroke-linecap:butt;stroke-linejoin:miter;stroke-opacity:1" />
    <path
       inkscape:connector-curvature="0"
       id="path2335"
       d="m 1121.985,724.71197 c -103.462,-33.79191 -187.9985,-61.56301 -187.85883,-61.71354 0.81128,-0.87437 49.32817,-5.07034 106.39513,-9.20154 79.4536,-5.75183 113.1113,-8.9514 152.3692,-14.48457 27.9875,-3.94465 60.3298,-10.02172 79.0257,-14.84878 4.9189,-1.27001 5.6143,-1.20605 20.1198,1.8503 64.9334,13.68163 152.0355,25.54839 251.1236,34.213 22.6736,1.98267 85.2557,6.77092 89.1533,6.82128 0.8012,0.0103 -6.4547,3.20897 -16.1243,7.10804 -9.6696,3.89908 -38.6783,15.90048 -64.4639,26.66979 -92.9577,38.82367 -133.4613,54.10816 -183.9711,69.42365 -20.8018,6.30745 -55.2762,15.84497 -56.7354,15.69612 -0.5063,-0.0517 -85.5712,-27.74183 -189.0332,-61.53375 z m 173.7735,-26.253 c 6.2434,-1.85406 10.6918,-6.54931 10.6918,-11.28489 0,-4.43711 -2.4501,-7.83973 -7.61,-10.56836 -8.0397,-4.25144 -23.2157,-1.73091 -27.3232,4.53801 -2.1409,3.2674 -1.9793,8.8258 0.3425,11.7774 4.7167,5.99634 14.6243,8.29212 23.8989,5.53784 z"
       style="opacity:1;fill:url(#linearGradient2343);fill-opacity:1;stroke-width:11.12580395;stroke-miterlimit:4;stroke-dasharray:none" />
    <path
       sodipodi:nodetypes="ccccc"
       inkscape:connector-curvature="0"
       id="path2383"
       d="m 1295.7585,698.45897 247.7693,7.67282 c 28.8248,75.78608 26.9087,117.91192 19.8351,162.2868 -1.5707,23.20885 -1.808,45.08442 10.8191,54.0956 l 100.9784,43.27648"
       style="fill:none;stroke:#e9e005;stroke-width:8;stroke-linecap:round;stroke-linejoin:round;stroke-miterlimit:4;stroke-dasharray:none;stroke-opacity:1;paint-order:stroke fill markers" />
  </g>
</svg>
